<?xml version="1.0" standalone="no"?>
<!DOCTYPE svg PUBLIC "-//W3C//DTD SVG 20010904//EN"
 "http://www.w3.org/TR/2001/REC-SVG-20010904/DTD/svg10.dtd">
<svg version="1.0" xmlns="http://www.w3.org/2000/svg"
 width="130" height="100" viewBox="0 0 2332.000000 1790.000000"
 preserveAspectRatio="xMidYMid meet">
<g transform="translate(0.000000,1790.000000) scale(0.100000,-0.100000)"
fill="#004384" stroke="none">
<path d="M10815 17579 c-1843 -80 -3647 -767 -5098 -1942 -315 -255 -759 -678
-1019 -972 -1219 -1379 -1966 -3063 -2162 -4875 -32 -294 -37 -394 -43 -807
-6 -445 2 -661 37 -1009 188 -1859 969 -3609 2226 -4994 167 -184 519 -531
694 -684 1395 -1223 3127 -1969 4970 -2140 2294 -214 4604 502 6375 1974 1718
1428 2819 3438 3094 5650 50 399 56 508 56 1070 0 574 -7 696 -61 1115 -210
1617 -854 3125 -1877 4388 -188 233 -355 416 -611 673 -351 350 -574 544 -937
817 -1630 1220 -3600 1826 -5644 1736z m-1394 -4599 c118 -35 212 -121 239
-218 27 -98 20 -130 -215 -1074 -124 -497 -228 -911 -231 -920 -5 -17 57 -18
1215 -18 1153 0 1220 1 1225 18 3 9 116 458 252 997 180 719 254 997 276 1043
82 167 255 233 441 168 114 -40 175 -93 219 -193 42 -96 41 -105 -207 -1093
-124 -498 -228 -913 -231 -922 -5 -17 33 -18 703 -18 439 0 732 -4 772 -10
204 -34 316 -207 281 -437 -7 -43 -19 -91 -27 -108 -46 -90 -122 -145 -227
-164 -40 -7 -332 -11 -878 -11 -450 0 -818 -2 -818 -4 0 -3 -148 -604 -330
-1336 -181 -733 -330 -1333 -330 -1336 0 -2 357 -5 793 -6 l792 -3 58 -29
c114 -58 157 -136 165 -298 4 -89 1 -117 -17 -177 -29 -96 -90 -158 -185 -189
-66 -22 -69 -22 -930 -22 l-864 0 -36 -147 c-187 -781 -461 -1867 -480 -1909
-53 -115 -159 -192 -280 -201 -82 -7 -213 31 -278 80 -50 38 -103 112 -118
165 -24 88 -16 128 220 1072 127 506 230 924 230 930 0 7 -408 10 -1224 10
l-1224 0 -17 -67 c-9 -38 -120 -488 -246 -1002 -136 -553 -240 -955 -254 -986
-79 -166 -235 -237 -413 -187 -40 12 -93 32 -117 46 -58 34 -120 107 -139 163
-35 103 -32 117 214 1103 127 506 230 922 230 925 0 3 -335 5 -744 5 -713 0
-747 1 -808 20 -122 37 -191 128 -207 271 -21 191 45 330 189 398 l55 26 848
3 c466 1 847 5 847 9 0 3 151 604 335 1334 184 731 335 1331 335 1334 0 2
-350 6 -777 7 -735 3 -781 4 -830 22 -142 51 -211 178 -201 367 9 181 114 300
289 329 40 6 367 10 881 10 l817 0 10 38 c5 20 118 469 251 997 169 675 249
978 270 1020 82 169 238 232 431 175z m6704 -8 c101 -46 156 -127 174 -256 15
-104 15 -5960 1 -6061 -19 -133 -83 -219 -195 -261 -71 -27 -248 -27 -325 0
-77 27 -150 101 -175 181 -20 59 -20 111 -20 3115 0 2399 3 3064 12 3096 29
94 95 160 196 196 77 27 262 21 332 -10z m53 -7206 c213 -54 395 -211 479
-411 47 -111 57 -172 57 -340 0 -145 -3 -168 -28 -250 -77 -252 -258 -428
-513 -497 -113 -30 -344 -30 -458 0 -262 71 -450 259 -522 522 -25 92 -25 367
1 460 70 256 266 452 516 516 129 33 339 33 468 0z"/>
<path d="M9020 10016 c0 -2 -148 -601 -330 -1332 -181 -731 -330 -1332 -330
-1336 0 -4 548 -8 1219 -8 l1218 0 81 318 c130 508 592 2348 592 2355 0 4
-551 7 -1225 7 -674 0 -1225 -2 -1225 -4z"/>
</g>
</svg>
